<svg width="18" height="18" viewBox="0 0 18 18" fill="none" xmlns="http://www.w3.org/2000/svg">
<path d="M9.90002 5.3999H9.16202C8.16302 5.3999 7.20002 6.4799 7.20002 7.3439V8.9999L4.50002 11.6999V8.9999H2.70002C1.71002 8.9999 0.900024 8.1899 0.900024 7.1999V2.6999C0.900024 1.7099 1.71002 0.899902 2.70002 0.899902H8.10002C9.09002 0.899902 9.90002 1.7099 9.90002 2.6999V5.3999ZM9.90002 6.2999H15.3C16.29 6.2999 17.1 7.1099 17.1 8.0999V12.5999C17.1 13.5899 16.29 14.3999 15.3 14.3999H13.5V17.0999L10.8 14.3999H9.90002C8.91002 14.3999 8.10002 13.5899 8.10002 12.5999V8.0999C8.10002 7.1099 8.91002 6.2999 9.90002 6.2999Z" fill="#25282B"/>
</svg>
